<svg width="130" height="40" viewBox="0 0 130 40" fill="none" xmlns="http://www.w3.org/2000/svg">
<rect width="130" height="40" rx="4" fill="#E5ECF4"/>
<path fill-rule="evenodd" clip-rule="evenodd" d="M42.5142 30.5356C42.1904 30.788 41.7047 30.9142 41.0571 30.9142C40.5999 30.9142 40.1714 30.8284 39.7714 30.657C39.3714 30.4856 39.0237 30.2308 38.7285 29.8927C38.4333 29.5546 38.1999 29.1356 38.0285 28.6356C37.8571 28.1356 37.7714 27.5523 37.7714 26.8856V24.5427C37.7714 23.8951 37.8642 23.3213 38.0499 22.8213C38.2356 22.3213 38.4928 21.8999 38.8214 21.557C39.1499 21.2142 39.5428 20.9546 39.9999 20.7784C40.4571 20.6023 40.9618 20.5142 41.5142 20.5142C42.0856 20.5142 42.5952 20.607 43.0428 20.7927C43.4904 20.9784 43.8714 21.2356 44.1856 21.5642C44.4999 21.8927 44.738 22.2784 44.8999 22.7213C45.0618 23.1642 45.1428 23.638 45.1428 24.1427V24.3142H43.2571V24.1427C43.2571 23.5427 43.1023 23.088 42.7928 22.7784C42.4833 22.4689 42.0476 22.3142 41.4856 22.3142C40.9523 22.3142 40.5142 22.4927 40.1714 22.8499C39.8285 23.207 39.6571 23.8189 39.6571 24.6856V26.7999C39.6571 28.3427 40.2856 29.1142 41.5428 29.1142C42.1047 29.1142 42.5309 28.9642 42.8214 28.6642C43.1118 28.3642 43.2571 27.9618 43.2571 27.457H40.8571V25.657H45.1428V30.7142H43.4285V29.5999H43.1714C43.0571 29.9713 42.838 30.2832 42.5142 30.5356ZM51.0122 30.6713C50.5693 30.8332 50.105 30.9142 49.6193 30.9142C49.1336 30.9142 48.6693 30.8332 48.2265 30.6713C47.7836 30.5094 47.3907 30.2737 47.0479 29.9642C46.705 29.6546 46.4336 29.2737 46.2336 28.8213C46.0336 28.3689 45.9336 27.8475 45.9336 27.257V27.0856C45.9336 26.5046 46.0336 25.988 46.2336 25.5356C46.4336 25.0832 46.705 24.6999 47.0479 24.3856C47.3907 24.0713 47.7836 23.8332 48.2265 23.6713C48.6693 23.5094 49.1336 23.4284 49.6193 23.4284C50.105 23.4284 50.5693 23.5094 51.0122 23.6713C51.455 23.8332 51.8479 24.0713 52.1908 24.3856C52.5336 24.6999 52.805 25.0832 53.005 25.5356C53.205 25.988 53.305 26.5046 53.305 27.0856V27.257C53.305 27.8475 53.205 28.3689 53.005 28.8213C52.805 29.2737 52.5336 29.6546 52.1908 29.9642C51.8479 30.2737 51.455 30.5094 51.0122 30.6713ZM49.6193 29.1999C49.3622 29.1999 49.1193 29.157 48.8907 29.0713C48.6622 28.9856 48.4622 28.8618 48.2908 28.6999C48.1193 28.538 47.9836 28.3404 47.8836 28.107C47.7836 27.8737 47.7336 27.6094 47.7336 27.3142V27.0284C47.7336 26.7332 47.7836 26.4689 47.8836 26.2356C47.9836 26.0023 48.1193 25.8046 48.2908 25.6427C48.4622 25.4808 48.6622 25.357 48.8907 25.2713C49.1193 25.1856 49.3622 25.1427 49.6193 25.1427C49.8765 25.1427 50.1193 25.1856 50.3479 25.2713C50.5765 25.357 50.7765 25.4808 50.9479 25.6427C51.1193 25.8046 51.255 26.0023 51.355 26.2356C51.455 26.4689 51.505 26.7332 51.505 27.0284V27.3142C51.505 27.6094 51.455 27.8737 51.355 28.107C51.255 28.3404 51.1193 28.538 50.9479 28.6999C50.7765 28.8618 50.5765 28.9856 50.3479 29.0713C50.1193 29.157 49.8765 29.1999 49.6193 29.1999ZM59.1173 30.6713C58.6744 30.8332 58.2101 30.9142 57.7244 30.9142C57.2387 30.9142 56.7744 30.8332 56.3316 30.6713C55.8887 30.5094 55.4959 30.2737 55.153 29.9642C54.8101 29.6546 54.5387 29.2737 54.3387 28.8213C54.1387 28.3689 54.0387 27.8475 54.0387 27.257V27.0856C54.0387 26.5046 54.1387 25.988 54.3387 25.5356C54.5387 25.0832 54.8101 24.6999 55.153 24.3856C55.4959 24.0713 55.8887 23.8332 56.3316 23.6713C56.7744 23.5094 57.2387 23.4284 57.7244 23.4284C58.2101 23.4284 58.6744 23.5094 59.1173 23.6713C59.5601 23.8332 59.953 24.0713 60.2959 24.3856C60.6387 24.6999 60.9101 25.0832 61.1101 25.5356C61.3101 25.988 61.4101 26.5046 61.4101 27.0856V27.257C61.4101 27.8475 61.3101 28.3689 61.1101 28.8213C60.9101 29.2737 60.6387 29.6546 60.2959 29.9642C59.953 30.2737 59.5601 30.5094 59.1173 30.6713ZM57.7244 29.1999C57.4673 29.1999 57.2244 29.157 56.9959 29.0713C56.7673 28.9856 56.5673 28.8618 56.3959 28.6999C56.2244 28.538 56.0887 28.3404 55.9887 28.107C55.8887 27.8737 55.8387 27.6094 55.8387 27.3142V27.0284C55.8387 26.7332 55.8887 26.4689 55.9887 26.2356C56.0887 26.0023 56.2244 25.8046 56.3959 25.6427C56.5673 25.4808 56.7673 25.357 56.9959 25.2713C57.2244 25.1856 57.4673 25.1427 57.7244 25.1427C57.9816 25.1427 58.2244 25.1856 58.453 25.2713C58.6816 25.357 58.8816 25.4808 59.053 25.6427C59.2244 25.8046 59.3601 26.0023 59.4601 26.2356C59.5601 26.4689 59.6101 26.7332 59.6101 27.0284V27.3142C59.6101 27.6094 59.5601 27.8737 59.4601 28.107C59.3601 28.3404 59.2244 28.538 59.053 28.6999C58.8816 28.8618 58.6816 28.9856 58.453 29.0713C58.2244 29.157 57.9816 29.1999 57.7244 29.1999ZM69.1224 33.257C68.9176 33.4665 68.6533 33.5713 68.3295 33.5713H63.5581V31.857H67.2438C67.501 31.857 67.6295 31.7142 67.6295 31.4284V29.6856H67.3724C67.2962 29.8475 67.2033 30.0023 67.0938 30.1499C66.9843 30.2975 66.8414 30.4284 66.6652 30.5427C66.489 30.657 66.2795 30.7475 66.0367 30.8142C65.7938 30.8808 65.501 30.9142 65.1581 30.9142C64.72 30.9142 64.3129 30.8356 63.9367 30.6784C63.5605 30.5213 63.2319 30.288 62.951 29.9784C62.67 29.6689 62.451 29.2904 62.2938 28.8427C62.1367 28.3951 62.0581 27.8808 62.0581 27.2999V27.0427C62.0581 26.4713 62.1414 25.9618 62.3081 25.5142C62.4748 25.0665 62.7033 24.688 62.9938 24.3784C63.2843 24.0689 63.6224 23.8332 64.0081 23.6713C64.3938 23.5094 64.801 23.4284 65.2295 23.4284C65.801 23.4284 66.2533 23.5356 66.5867 23.7499C66.92 23.9642 67.1819 24.2665 67.3724 24.657H67.6295V23.6284H69.4295V32.457C69.4295 32.7808 69.3271 33.0475 69.1224 33.257ZM65.7438 29.1999C65.1819 29.1999 64.7271 29.0261 64.3795 28.6784C64.0319 28.3308 63.8581 27.857 63.8581 27.257V27.0856C63.8581 26.4856 64.0319 26.0118 64.3795 25.6642C64.7271 25.3165 65.1819 25.1427 65.7438 25.1427C66.3057 25.1427 66.7605 25.3213 67.1081 25.6784C67.4557 26.0356 67.6295 26.5046 67.6295 27.0856V27.257C67.6295 27.838 67.4557 28.307 67.1081 28.6642C66.7605 29.0213 66.3057 29.1999 65.7438 29.1999ZM77.2346 28.9999V30.7142H70.6346V28.9999H73.1203V22.4284H70.7203V20.7142H74.9203V28.9999H77.2346ZM82.1112 30.9142C82.5778 30.9142 82.985 30.8618 83.3326 30.757C83.6802 30.6523 83.9754 30.5189 84.2183 30.357C84.4612 30.1951 84.6588 30.0165 84.8112 29.8213C84.9635 29.6261 85.0826 29.438 85.1683 29.257L83.6254 28.3999C83.5207 28.6189 83.3493 28.807 83.1112 28.9642C82.8731 29.1213 82.5302 29.1999 82.0826 29.1999C81.854 29.1999 81.6373 29.1642 81.4326 29.0927C81.2278 29.0213 81.0469 28.9213 80.8897 28.7927C80.7326 28.6642 80.6088 28.5118 80.5183 28.3356C80.4278 28.1594 80.3778 27.9665 80.3683 27.757H85.5683V26.7999C85.5683 26.4284 85.5016 26.0451 85.3683 25.6499C85.235 25.2546 85.0254 24.8927 84.7397 24.5642C84.454 24.2356 84.0921 23.9642 83.654 23.7499C83.2159 23.5356 82.6921 23.4284 82.0826 23.4284C81.5873 23.4284 81.1231 23.5165 80.6897 23.6927C80.2564 23.8689 79.8778 24.1142 79.554 24.4284C79.2302 24.7427 78.9754 25.1237 78.7897 25.5713C78.604 26.0189 78.5112 26.5142 78.5112 27.057V27.1427C78.5112 27.7332 78.5993 28.2618 78.7754 28.7284C78.9516 29.1951 79.1993 29.5904 79.5183 29.9142C79.8373 30.238 80.2159 30.4856 80.654 30.657C81.0921 30.8284 81.5778 30.9142 82.1112 30.9142ZM80.3969 26.2142H83.7397C83.6826 25.8808 83.504 25.6046 83.204 25.3856C82.904 25.1665 82.5254 25.057 82.0683 25.057C81.6112 25.057 81.2397 25.1737 80.954 25.407C80.6683 25.6404 80.4826 25.9094 80.3969 26.2142ZM88.6877 30.7142V26.9427H90.7163C91.2305 26.9427 91.6782 26.857 92.0591 26.6856C92.4401 26.5142 92.7567 26.288 93.0091 26.007C93.2615 25.7261 93.452 25.407 93.5805 25.0499C93.7091 24.6927 93.7734 24.3284 93.7734 23.957V23.6142C93.7734 23.2523 93.7091 22.8975 93.5805 22.5499C93.452 22.2023 93.2615 21.8927 93.0091 21.6213C92.7567 21.3499 92.4401 21.1308 92.0591 20.9642C91.6782 20.7975 91.2305 20.7142 90.7163 20.7142H86.802V30.7142H88.6877ZM88.6877 25.1427H90.5305C90.9496 25.1427 91.2805 25.0284 91.5234 24.7999C91.7663 24.5713 91.8877 24.2761 91.8877 23.9142V23.7427C91.8877 23.3808 91.7663 23.0856 91.5234 22.857C91.2805 22.6284 90.9496 22.5142 90.5305 22.5142H88.6877V25.1427ZM101.55 30.7142V28.9999H99.2356V20.7142H95.0356V22.4284H97.4356V28.9999H94.9499V30.7142H101.55ZM106.884 30.6356C106.541 30.8213 106.141 30.9142 105.684 30.9142C105.255 30.9142 104.853 30.8332 104.476 30.6713C104.1 30.5094 103.769 30.2713 103.484 29.957C103.198 29.6427 102.972 29.2618 102.805 28.8142C102.638 28.3665 102.555 27.857 102.555 27.2856V27.057C102.555 26.4951 102.636 25.9904 102.798 25.5427C102.96 25.0951 103.179 24.7142 103.455 24.3999C103.731 24.0856 104.053 23.8451 104.419 23.6784C104.786 23.5118 105.179 23.4284 105.598 23.4284C106.103 23.4284 106.51 23.5142 106.819 23.6856C107.129 23.857 107.374 24.1237 107.555 24.4856H107.812V23.6284H109.612V28.5713C109.612 28.857 109.741 28.9999 109.998 28.9999H110.269V30.7142H109.041C108.717 30.7142 108.453 30.6189 108.248 30.4284C108.043 30.238 107.941 29.9904 107.941 29.6856H107.684C107.493 30.1332 107.226 30.4499 106.884 30.6356ZM106.084 29.1999C105.56 29.1999 105.141 29.0261 104.826 28.6784C104.512 28.3308 104.355 27.857 104.355 27.257V27.0856C104.355 26.4856 104.512 26.0118 104.826 25.6642C105.141 25.3165 105.56 25.1427 106.084 25.1427C106.607 25.1427 107.026 25.3165 107.341 25.6642C107.655 26.0118 107.812 26.4856 107.812 27.0856V27.257C107.812 27.857 107.655 28.3308 107.341 28.6784C107.026 29.0261 106.607 29.1999 106.084 29.1999ZM117.496 33.257C117.291 33.4665 117.027 33.5713 116.703 33.5713H112.489V31.857H115.617C115.874 31.857 116.003 31.7142 116.003 31.4284V29.6856H115.746C115.432 30.5046 114.755 30.9142 113.717 30.9142C113.365 30.9142 113.036 30.857 112.732 30.7427C112.427 30.6284 112.16 30.4523 111.932 30.2142C111.703 29.9761 111.524 29.6784 111.396 29.3213C111.267 28.9642 111.203 28.5427 111.203 28.057V23.6284H113.003V27.6856C113.003 28.1904 113.122 28.5832 113.36 28.8642C113.598 29.1451 113.955 29.2856 114.432 29.2856C114.974 29.2856 115.372 29.1118 115.624 28.7642C115.877 28.4165 116.003 27.9427 116.003 27.3427V23.6284H117.803V32.457C117.803 32.7808 117.701 33.0475 117.496 33.257Z" fill="#495567"/>
<path fill-rule="evenodd" clip-rule="evenodd" d="M55.6174 9.65744C55.7078 9.65744 55.7947 9.63958 55.8781 9.60386C55.9614 9.56815 56.034 9.52053 56.0959 9.46101C56.1578 9.40148 56.2066 9.33005 56.2424 9.24672C56.2781 9.16339 56.2959 9.0741 56.2959 8.97886C56.2959 8.88363 56.2781 8.79434 56.2424 8.71101C56.2066 8.62767 56.1578 8.55625 56.0959 8.49672C56.034 8.4372 55.9614 8.38958 55.8781 8.35386C55.7947 8.31815 55.7078 8.30029 55.6174 8.30029C55.5221 8.30029 55.434 8.31815 55.3531 8.35386C55.2721 8.38958 55.2007 8.4372 55.1388 8.49672C55.0769 8.55625 55.0281 8.62767 54.9924 8.71101C54.9566 8.79434 54.9388 8.88363 54.9388 8.97886C54.9388 9.0741 54.9566 9.16339 54.9924 9.24672C55.0281 9.33005 55.0769 9.40148 55.1388 9.46101C55.2007 9.52053 55.2721 9.56815 55.3531 9.60386C55.434 9.63958 55.5221 9.65744 55.6174 9.65744ZM39.8286 13.4824C39.6667 13.6086 39.4238 13.6717 39.1 13.6717C38.8714 13.6717 38.6572 13.6289 38.4572 13.5432C38.2572 13.4574 38.0833 13.3301 37.9357 13.161C37.7881 12.992 37.6714 12.7824 37.5857 12.5324C37.5 12.2824 37.4572 11.9908 37.4572 11.6574V10.486C37.4572 10.1622 37.5036 9.87529 37.5964 9.62529C37.6893 9.37529 37.8179 9.16458 37.9822 8.99315C38.1464 8.82172 38.3429 8.69196 38.5714 8.60386C38.8 8.51577 39.0524 8.47172 39.3286 8.47172C39.6143 8.47172 39.8691 8.51815 40.0929 8.61101C40.3167 8.70386 40.5072 8.83244 40.6643 8.99672C40.8214 9.16101 40.9405 9.35386 41.0214 9.57529C41.1024 9.79672 41.1429 10.0336 41.1429 10.286V10.3717H40.2V10.286C40.2 9.98601 40.1226 9.75863 39.9679 9.60386C39.8131 9.4491 39.5952 9.37172 39.3143 9.37172C39.0476 9.37172 38.8286 9.46101 38.6572 9.63958C38.4857 9.81815 38.4 10.1241 38.4 10.5574V11.6146C38.4 12.386 38.7143 12.7717 39.3429 12.7717C39.6238 12.7717 39.8369 12.6967 39.9822 12.5467C40.1274 12.3967 40.2 12.1955 40.2 11.9432H39V11.0432H41.1429V13.5717H40.2857V13.0146H40.1572C40.1 13.2003 39.9905 13.3562 39.8286 13.4824ZM44.0276 13.5932C43.8538 13.6455 43.6502 13.6717 43.4168 13.6717C43.1502 13.6717 42.9073 13.6289 42.6883 13.5431C42.4692 13.4574 42.2799 13.3336 42.1204 13.1717C41.9609 13.0098 41.8371 12.8122 41.749 12.5789C41.6609 12.3455 41.6168 12.0812 41.6168 11.786V11.7432C41.6168 11.4717 41.6633 11.2241 41.7561 11.0003C41.849 10.7765 41.9764 10.586 42.1383 10.4289C42.3002 10.2717 42.4895 10.1491 42.7061 10.061C42.9228 9.97291 43.1549 9.92886 43.4026 9.92886C43.7073 9.92886 43.9692 9.98244 44.1883 10.0896C44.4073 10.1967 44.5883 10.3324 44.7311 10.4967C44.874 10.661 44.9788 10.842 45.0454 11.0396C45.1121 11.2372 45.1454 11.4289 45.1454 11.6146V12.0932H42.5454C42.5502 12.1979 42.5752 12.2943 42.6204 12.3824C42.6657 12.4705 42.7276 12.5467 42.8061 12.611C42.8847 12.6753 42.9752 12.7253 43.0776 12.761C43.1799 12.7967 43.2883 12.8146 43.4026 12.8146C43.6264 12.8146 43.7978 12.7753 43.9168 12.6967C44.0359 12.6182 44.1216 12.5241 44.174 12.4146L44.9454 12.8432C44.9026 12.9336 44.843 13.0277 44.7668 13.1253C44.6907 13.2229 44.5918 13.3122 44.4704 13.3931C44.349 13.4741 44.2014 13.5408 44.0276 13.5932ZM44.2311 11.3217H42.5597C42.6026 11.1693 42.6954 11.0348 42.8383 10.9182C42.9811 10.8015 43.1668 10.7432 43.3954 10.7432C43.624 10.7432 43.8133 10.7979 43.9633 10.9074C44.1133 11.017 44.2026 11.1551 44.2311 11.3217ZM48.8051 12.7146V13.5717H47.3051C47.1432 13.5717 47.0111 13.5193 46.9087 13.4146C46.8063 13.3098 46.7551 13.1765 46.7551 13.0146V10.886H45.7051V10.0289H46.7551V8.57172H47.6551V10.0289H48.9337V10.886H47.6551V12.5003C47.6551 12.6432 47.7194 12.7146 47.848 12.7146H48.8051ZM57.1031 12.7146V13.5717H53.9745V12.7146H55.1745V10.886H54.0602V10.0289H56.0745V12.7146H57.1031ZM60.9628 13.5717V12.7146H60.0056C59.8771 12.7146 59.8128 12.6432 59.8128 12.5003V10.886H61.0913V10.0289H59.8128V8.57172H58.9128V10.0289H57.8628V10.886H58.9128V13.0146C58.9128 13.1765 58.964 13.3098 59.0663 13.4146C59.1687 13.5193 59.3009 13.5717 59.4628 13.5717H60.9628ZM68.3929 13.5503C68.1714 13.6312 67.9393 13.6717 67.6964 13.6717C67.4536 13.6717 67.2214 13.6312 67 13.5503C66.7786 13.4693 66.5822 13.3515 66.4107 13.1967C66.2393 13.042 66.1036 12.8515 66.0036 12.6253C65.9036 12.3991 65.8536 12.1384 65.8536 11.8432V11.7574C65.8536 11.467 65.9036 11.2086 66.0036 10.9824C66.1036 10.7562 66.2393 10.5646 66.4107 10.4074C66.5822 10.2503 66.7786 10.1312 67 10.0503C67.2214 9.96934 67.4536 9.92886 67.6964 9.92886C67.9393 9.92886 68.1714 9.96934 68.3929 10.0503C68.6143 10.1312 68.8107 10.2503 68.9822 10.4074C69.1536 10.5646 69.2893 10.7562 69.3893 10.9824C69.4893 11.2086 69.5393 11.467 69.5393 11.7574V11.8432C69.5393 12.1384 69.4893 12.3991 69.3893 12.6253C69.2893 12.8515 69.1536 13.042 68.9822 13.1967C68.8107 13.3515 68.6143 13.4693 68.3929 13.5503ZM67.6964 12.8146C67.5679 12.8146 67.4464 12.7931 67.3322 12.7503C67.2179 12.7074 67.1179 12.6455 67.0322 12.5646C66.9464 12.4836 66.8786 12.3848 66.8286 12.2681C66.7786 12.1515 66.7536 12.0193 66.7536 11.8717V11.7289C66.7536 11.5812 66.7786 11.4491 66.8286 11.3324C66.8786 11.2158 66.9464 11.117 67.0322 11.036C67.1179 10.9551 67.2179 10.8932 67.3322 10.8503C67.4464 10.8074 67.5679 10.786 67.6964 10.786C67.825 10.786 67.9464 10.8074 68.0607 10.8503C68.175 10.8932 68.275 10.9551 68.3607 11.036C68.4464 11.117 68.5143 11.2158 68.5643 11.3324C68.6143 11.4491 68.6393 11.5812 68.6393 11.7289V11.8717C68.6393 12.0193 68.6143 12.1515 68.5643 12.2681C68.5143 12.3848 68.4464 12.4836 68.3607 12.5646C68.275 12.6455 68.175 12.7074 68.0607 12.7503C67.9464 12.7931 67.825 12.8146 67.6964 12.8146ZM71.0204 11.7289V13.5717H70.1204V10.0289H71.0204V10.5574H71.149C71.2299 10.3574 71.3609 10.2027 71.5418 10.0932C71.7228 9.98363 71.9347 9.92886 72.1776 9.92886C72.349 9.92886 72.5097 9.95625 72.6597 10.011C72.8097 10.0658 72.9418 10.1503 73.0561 10.2646C73.1704 10.3789 73.2597 10.5241 73.324 10.7003C73.3883 10.8765 73.4204 11.086 73.4204 11.3289V13.5717H72.5204V11.5574C72.5204 11.3051 72.4597 11.1062 72.3383 10.961C72.2168 10.8158 72.0418 10.7431 71.8133 10.7431C71.5466 10.7431 71.3478 10.8324 71.2168 11.011C71.0859 11.1896 71.0204 11.4289 71.0204 11.7289Z" fill="#495567"/>
<path fill-rule="evenodd" clip-rule="evenodd" d="M12.3945 10.1694C12.9122 9.91976 13.5057 9.94657 14.0038 10.2464L23.9123 16.0164L21.0743 18.8677L12.3945 10.1694ZM11.4286 11.7296C11.4286 11.4641 11.4875 11.2062 11.597 10.9744L20.2749 19.6708L11.5985 28.3884C11.4879 28.1614 11.4286 27.9073 11.4286 27.6407V11.7296ZM21.0754 20.4728L12.4096 29.1798C12.6396 29.2863 12.8843 29.3327 13.1286 29.3327C13.4303 29.3327 13.7312 29.2606 14.0038 29.0967L23.9142 23.318L21.0754 20.4728ZM27.6754 18.2076C27.6788 18.2095 27.6826 18.2118 27.686 18.214C28.1977 18.5244 28.5031 19.0674 28.5031 19.6663C28.5031 20.2651 28.1977 20.8081 27.686 21.1189L24.9262 22.7278L21.8744 19.6697L24.9243 16.6055L27.6754 18.2076Z" fill="#495567"/>
</svg>
